<svg width="593" height="237" viewBox="0 0 593 237" fill="none" xmlns="http://www.w3.org/2000/svg">
<path d="M75.6109 44C116.011 44 143.011 62.6 143.011 114C143.011 165.6 116.011 184 75.6109 184H21.0109V44H75.6109ZM37.6109 169.6H75.6109C110.811 169.6 125.811 155.8 125.811 114C125.811 72.4 110.811 58.4 75.6109 58.4H37.6109V169.6ZM239.545 82.4C235.345 71.8 232.545 62.6 230.745 54H229.145C227.545 62.6 224.545 72.4 220.545 82.6L203.345 125.2H256.745L239.545 82.4ZM161.745 184L219.345 44H240.945L298.145 184H280.345L262.545 139.8H197.345L179.545 184H161.745ZM392.675 44C418.875 44 437.675 56.2 437.675 83.6C437.675 105.8 425.675 117.4 406.275 120.2V122C413.675 127.2 417.675 134.6 422.675 143L447.875 184H428.675L393.675 126.8H343.275V184H326.675V44H392.675ZM343.275 112H392.675C410.075 112 420.675 105.4 420.675 85C420.675 65 410.075 58.6 392.675 58.6H343.275V112ZM576.256 44V58.6H494.256V104.6H568.856V119.2H494.256V169.4H578.256V184H477.456L477.656 44H576.256Z" fill="url(#paint0_linear_137_91)" fill-opacity="0.82"/>
<defs>
<linearGradient id="paint0_linear_137_91" x1="54" y1="75" x2="347.5" y2="264" gradientUnits="userSpaceOnUse">
<stop stop-color="#F4FEFE"/>
<stop offset="0.0001" stop-color="#F4FEFE"/>
<stop offset="1" stop-color="#A2ECEC"/>
</linearGradient>
</defs>
</svg>
