<svg width="803" height="43" viewBox="0 0 803 43" fill="none" xmlns="http://www.w3.org/2000/svg">
<path d="M13.572 7.8C20.844 7.8 25.704 11.148 25.704 20.4C25.704 29.688 20.844 33 13.572 33H3.744V7.8H13.572ZM6.732 30.408H13.572C19.908 30.408 22.608 27.924 22.608 20.4C22.608 12.912 19.908 10.392 13.572 10.392H6.732V30.408ZM36.8789 15.144V33H34.0709V15.144H36.8789ZM33.9629 11.796V6.72H36.9509V11.796H33.9629ZM59.9774 20.616C59.9774 18.096 58.4654 17.016 54.3614 17.016C50.0054 17.016 48.5654 18.096 48.5654 20.616C48.5654 23.208 50.0054 24.288 54.3614 24.288C58.5374 24.288 59.9774 23.208 59.9774 20.616ZM44.8214 35.628C44.8214 33.36 46.1534 32.1 47.9894 31.632V31.272C46.5134 30.84 45.7214 29.904 45.7214 28.536C45.7214 27.024 46.7294 25.944 48.3854 25.692V25.296C46.6574 24.396 45.7574 22.848 45.7574 20.616C45.7574 16.512 48.8534 14.712 54.3614 14.712C55.8734 14.712 57.2054 14.856 58.3214 15.18C58.8254 12.804 60.7334 11.976 63.4694 12.012L63.6494 14.712C61.6334 14.676 60.4454 14.856 59.2574 15.54H59.2934V15.936C61.5254 16.62 62.8214 18.384 62.8214 20.616C62.8214 24.648 59.6174 26.484 54.3614 26.484C52.5614 26.448 51.0134 26.268 49.7534 25.872C48.9614 26.376 48.5654 26.952 48.5654 27.672C48.5654 28.572 49.2134 29.004 50.2214 29.04L57.6734 29.436C61.3094 29.58 63.9734 31.092 63.9734 34.8C63.9734 38.724 61.0934 40.668 54.1094 40.668C47.3774 40.668 44.8214 38.724 44.8214 35.628ZM47.6294 34.98C47.6294 37.284 49.1414 38.256 54.1094 38.256C59.5454 38.256 61.1294 37.356 61.1294 34.8C61.1294 32.964 59.9414 32.208 57.9254 32.1L49.6454 31.668C48.3134 32.388 47.6294 33.504 47.6294 34.98ZM74.1741 15.144V33H71.3661V15.144H74.1741ZM71.2581 11.796V6.72H74.2461V11.796H71.2581ZM81.8646 17.556V15.144H84.7086L85.4646 10.104H87.4086V15.144H97.7406V17.556H87.4086V26.448C87.4086 29.328 88.3806 30.984 91.6926 30.984C95.0406 30.984 95.9406 29.292 96.2646 26.088L98.8926 26.736C98.5686 30.336 96.6606 33.432 91.6926 33.432C86.7246 33.432 84.6006 30.804 84.6006 26.448V17.556H81.8646ZM112.245 33.432C107.961 33.432 105.405 31.56 105.405 27.672C105.405 23.784 107.997 21.912 112.281 21.912C115.341 21.912 117.861 22.884 119.085 24.612H119.409V22.488C119.409 18.384 117.789 17.124 113.973 17.124C111.381 17.124 109.257 17.664 108.645 20.292L105.981 19.5C107.061 16.044 110.013 14.712 113.973 14.712C118.977 14.712 122.217 16.728 122.217 22.488V33H119.517L119.409 30.084H119.085C117.897 32.388 115.377 33.432 112.245 33.432ZM108.213 27.672C108.213 30.12 109.689 30.984 112.785 30.984C115.737 30.984 117.717 30.156 119.409 28.572V26.268C117.717 25.08 115.809 24.288 112.785 24.288C109.941 24.288 108.213 25.008 108.213 27.672ZM134.14 6.72V33H131.332V6.72H134.14ZM155.949 33L155.913 7.8H158.937V30.372H173.085V33H155.949ZM183.212 15.144V33H180.404V15.144H183.212ZM180.296 11.796V6.72H183.284V11.796H180.296ZM190.842 17.556V15.144H194.01V13.236C194.01 9.06 195.774 6.684 200.994 6.684H203.586V9.276H201.282C197.646 9.276 196.782 9.924 196.782 13.236V15.144H204.558V17.556H196.782V33H194.01V17.556H190.842ZM218.483 33.432C212.939 33.432 209.231 31.128 209.231 24.036C209.231 16.944 212.939 14.712 218.195 14.712C223.415 14.712 227.123 16.944 227.123 24V24.864H212.111C212.327 29.904 214.307 30.984 218.483 30.984C221.687 30.984 223.595 30.264 224.279 27.456L226.943 28.248C225.755 32.028 222.587 33.432 218.483 33.432ZM212.147 22.56H224.207C223.919 18.096 221.903 17.124 218.195 17.124C214.487 17.124 212.471 18.096 212.147 22.56ZM237.869 6.72V33H235.061V6.72H237.869ZM264.503 24.036C264.503 31.128 260.723 33.432 255.251 33.432C249.779 33.432 245.999 31.128 245.999 24.036C245.999 16.944 249.779 14.712 255.251 14.712C260.723 14.712 264.503 16.944 264.503 24.036ZM248.879 24.036C248.879 29.796 250.931 30.984 255.251 30.984C259.571 30.984 261.659 29.796 261.659 24.036C261.659 18.312 259.571 17.124 255.251 17.124C250.931 17.124 248.879 18.312 248.879 24.036ZM275.267 15.144L275.375 18.024H275.699C276.887 15.684 279.371 14.712 282.359 14.712C286.787 14.712 289.631 16.656 289.631 21.876V33H286.823V22.38C286.823 18.564 285.131 17.124 281.675 17.124C279.011 17.124 276.743 18.06 275.375 19.896V33H272.567V15.144H275.267ZM312.222 20.616C312.222 18.096 310.71 17.016 306.606 17.016C302.25 17.016 300.81 18.096 300.81 20.616C300.81 23.208 302.25 24.288 306.606 24.288C310.782 24.288 312.222 23.208 312.222 20.616ZM297.066 35.628C297.066 33.36 298.398 32.1 300.234 31.632V31.272C298.758 30.84 297.966 29.904 297.966 28.536C297.966 27.024 298.974 25.944 300.63 25.692V25.296C298.902 24.396 298.002 22.848 298.002 20.616C298.002 16.512 301.098 14.712 306.606 14.712C308.118 14.712 309.45 14.856 310.566 15.18C311.07 12.804 312.978 11.976 315.714 12.012L315.894 14.712C313.878 14.676 312.69 14.856 311.502 15.54H311.538V15.936C313.77 16.62 315.066 18.384 315.066 20.616C315.066 24.648 311.862 26.484 306.606 26.484C304.806 26.448 303.258 26.268 301.998 25.872C301.206 26.376 300.81 26.952 300.81 27.672C300.81 28.572 301.458 29.004 302.466 29.04L309.918 29.436C313.554 29.58 316.218 31.092 316.218 34.8C316.218 38.724 313.338 40.668 306.354 40.668C299.622 40.668 297.066 38.724 297.066 35.628ZM299.874 34.98C299.874 37.284 301.386 38.256 306.354 38.256C311.79 38.256 313.374 37.356 313.374 34.8C313.374 32.964 312.186 32.208 310.17 32.1L301.89 31.668C300.558 32.388 299.874 33.504 299.874 34.98ZM347.37 7.8C352.194 7.8 355.758 10.032 355.758 15.612C355.758 21.228 352.194 23.496 347.37 23.496H338.946V33H335.958V7.8H347.37ZM338.946 20.868H347.37C350.646 20.868 352.698 19.716 352.698 15.612C352.698 11.58 350.646 10.428 347.37 10.428H338.946V20.868ZM362.978 33V15.144H365.678L365.786 19.14H366.146C367.334 16.26 369.926 15.144 373.202 15.144H374.678V17.88C373.994 17.844 373.382 17.844 372.77 17.844C369.242 17.844 367.046 19.176 365.786 20.94V33H362.978ZM389.285 33.432C383.741 33.432 380.033 31.128 380.033 24.036C380.033 16.944 383.741 14.712 388.997 14.712C394.217 14.712 397.925 16.944 397.925 24V24.864H382.913C383.129 29.904 385.109 30.984 389.285 30.984C392.489 30.984 394.397 30.264 395.081 27.456L397.745 28.248C396.557 32.028 393.389 33.432 389.285 33.432ZM382.949 22.56H395.009C394.721 18.096 392.705 17.124 388.997 17.124C385.289 17.124 383.273 18.096 382.949 22.56ZM403.456 15.144H406.516L410.908 25.908C411.556 27.564 412.132 29.292 412.528 31.056H412.888C413.32 29.292 413.896 27.564 414.58 25.908L419.044 15.144H421.924L414.364 33H410.944L403.456 15.144ZM436.564 33.432C431.02 33.432 427.312 31.128 427.312 24.036C427.312 16.944 431.02 14.712 436.276 14.712C441.496 14.712 445.204 16.944 445.204 24V24.864H430.192C430.408 29.904 432.388 30.984 436.564 30.984C439.768 30.984 441.676 30.264 442.36 27.456L445.024 28.248C443.836 32.028 440.668 33.432 436.564 33.432ZM430.228 22.56H442.288C442 18.096 439.984 17.124 436.276 17.124C432.568 17.124 430.552 18.096 430.228 22.56ZM455.983 15.144L456.091 18.024H456.415C457.603 15.684 460.087 14.712 463.075 14.712C467.503 14.712 470.347 16.656 470.347 21.876V33H467.539V22.38C467.539 18.564 465.847 17.124 462.391 17.124C459.727 17.124 457.459 18.06 456.091 19.896V33H453.283V15.144H455.983ZM477.038 17.556V15.144H479.882L480.638 10.104H482.582V15.144H492.914V17.556H482.582V26.448C482.582 29.328 483.554 30.984 486.866 30.984C490.214 30.984 491.114 29.292 491.438 26.088L494.066 26.736C493.742 30.336 491.834 33.432 486.866 33.432C481.898 33.432 479.774 30.804 479.774 26.448V17.556H477.038ZM504.533 15.144V33H501.725V15.144H504.533ZM501.617 11.796V6.72H504.605V11.796H501.617ZM531.375 24.036C531.375 31.128 527.595 33.432 522.123 33.432C516.651 33.432 512.871 31.128 512.871 24.036C512.871 16.944 516.651 14.712 522.123 14.712C527.595 14.712 531.375 16.944 531.375 24.036ZM515.751 24.036C515.751 29.796 517.803 30.984 522.123 30.984C526.443 30.984 528.531 29.796 528.531 24.036C528.531 18.312 526.443 17.124 522.123 17.124C517.803 17.124 515.751 18.312 515.751 24.036ZM542.139 15.144L542.247 18.024H542.571C543.759 15.684 546.243 14.712 549.231 14.712C553.659 14.712 556.503 16.656 556.503 21.876V33H553.695V22.38C553.695 18.564 552.003 17.124 548.547 17.124C545.883 17.124 543.615 18.06 542.247 19.896V33H539.439V15.144H542.139Z" fill="white"/>
</svg>
