<svg width="6537" height="6349" viewBox="0 0 6537 6349" fill="none" xmlns="http://www.w3.org/2000/svg">
<path d="M4.0864 3.29323C2180.62 1.89941 4357.26 6.08086 6533.8 3.29323C6531.16 2117.25 6531.16 4231.2 6533.8 6345.16C4357.26 6348.64 2180.62 6339.82 4.0864 6345.16C8.61306 4231.2 0.125569 2117.25 4.0864 3.29323Z" stroke="url(#paint0_linear_1572_2071)" stroke-width="5" stroke-miterlimit="10"/>
<path d="M4.0625 5768.58C309.612 5808.65 353.634 6005.41 588.455 6164.42C855.075 6345.16 1124.41 6182.54 1354.37 6018.77C1627.32 5823.98 1925.52 5467.52 2276.33 5420.82C2571.47 5381.56 2907.8 5589.71 3162.43 5712.71C3434.03 5843.96 3738.56 6028.18 4048.98 6005.53C4377.95 5981.6 4689.61 5776.71 4983.73 5642.67C5249.45 5521.53 5543.34 5392.25 5837.12 5488.07C6097.4 5573.1 6244.52 5743.61 6533.77 5768.7" stroke="url(#paint1_linear_1572_2071)" stroke-width="5" stroke-miterlimit="10"/>
<path d="M4.0625 5192.46C320.929 5236.6 97.5381 5877.75 137.939 6066.03C246.126 6569.32 742.475 5894.25 858.131 5736.86C1068.17 5451.01 1254.21 5145.88 1472.17 4865.73C1587.72 4717.28 1737.55 4473.25 1925.63 4422.26C2255.96 4332.82 2806.18 4890.93 3031.27 5066.78C3306.6 5281.78 3760.51 5774.03 4139.17 5716.07C4313.56 5689.36 4529.48 5516.87 4664.26 5419.54C4885.39 5259.6 5095.31 5083.86 5311.58 4917.3C5476.69 4789.53 6011.17 4299.14 6236.83 4572.33C6374.32 4738.77 6205.25 5189.21 6534.45 5191.53" stroke="url(#paint2_linear_1572_2071)" stroke-width="5" stroke-miterlimit="10"/>
<path d="M4.0625 4615.99C291.392 4690.67 297.503 4898.23 495.319 5085.12C755.602 5331.01 1022 5065.96 1221.51 4869.2C1460.29 4633.87 1752.15 4144.53 2107.72 4069.03C2408.63 4005.15 2874.19 4287.16 3139.34 4399.71C3444.33 4528.99 3832.83 4768.96 4172.78 4733.88C4516.69 4698.34 4855.85 4476.02 5165.93 4336.41C5392.26 4234.43 5780.42 4011.19 6026 4175.42C6253.91 4328.05 6226.41 4556.05 6535.25 4615.29" stroke="url(#paint3_linear_1572_2071)" stroke-width="5" stroke-miterlimit="10"/>
<path d="M4.67969 4038.27C426.225 3966.03 816.084 3801.44 1226.31 3684.13C1521.56 3599.57 1706.59 3570.41 1980.34 3712.7C2143.75 3797.61 2319.84 3939.89 2509.06 3959.29C2784.05 3987.51 3128.64 3760.9 3367.2 3645.68C3609.15 3528.95 3948.31 3292.23 4226.13 3332.07C4463.78 3366.34 4673.14 3601.08 4854.66 3741.27C5102.61 3932.69 5276.21 3962.54 5578.93 3977.06C5899.3 3992.51 6211.53 4044.31 6533.49 4038.85" stroke="url(#paint4_linear_1572_2071)" stroke-width="5" stroke-miterlimit="10"/>
<path d="M4.0625 3462.39C652.847 3370.98 1386.28 2598.57 2003.83 3082.22C2205.83 3240.42 2412.02 3524.88 2685.09 3555.89C2966.08 3587.71 3233.61 3332.3 3434.93 3168.76C3644.63 2998.36 3900.61 2749.22 4189.98 2787.78C4407.71 2816.82 4567.05 2992.44 4737.14 3115.21C4972.08 3284.56 5158.01 3283.17 5434.93 3313.6C5805.66 3354.37 6159.19 3461.34 6533.89 3462.74" stroke="url(#paint5_linear_1572_2071)" stroke-width="5" stroke-miterlimit="10"/>
<path d="M4.0625 2886.01C317.194 2846.64 496.45 2645.12 772.351 2513.52C1116.26 2349.51 1426.68 2523.27 1745.02 2681.82C2147.78 2882.18 2624.1 3262.58 3086.61 3307.18C3320.41 3329.83 3430.18 3197.42 3560.89 3023.19C3706.76 2828.63 3800.12 2783.57 4023.74 2724.45C4235.36 2668.58 4350.23 2516.19 4508.09 2374.37C4732.39 2173.08 4926.81 2146.13 5207.01 2263.33C5662.17 2453.7 6044.44 2784.73 6533.55 2885.9" stroke="url(#paint6_linear_1572_2071)" stroke-width="5" stroke-miterlimit="10"/>
<path d="M4.0625 2309.11C280.755 2267.76 481.06 2120.95 737.269 2020.83C1089.9 1883.19 1401.33 2044.87 1731.89 2192.15C2166.79 2385.89 2665.51 2721.22 3148.17 2778.37C3353.79 2802.76 3432.22 2720.29 3531.01 2562.79C3642.82 2384.85 3703.93 2392.74 3894.28 2333.85C4160.9 2251.39 4310.39 1970.42 4480.71 1764.71C4705 1493.62 4892.18 1399.77 5221.95 1563.54C5679.03 1790.61 6023.62 2201.33 6533.89 2309.35" stroke="url(#paint7_linear_1572_2071)" stroke-width="5" stroke-miterlimit="10"/>
<path d="M4.0625 1733.1C713.73 1758.54 1459.5 1727.52 2162.83 1826.02C2457.85 1867.49 2771.55 1869.58 3056.84 1929.39C3626.98 2048.8 4185.12 1628.56 4680.78 1379.88C4973.32 1233.07 5422.03 948.496 5750.77 1145.6C6054.4 1327.38 6162.02 1663.06 6533.77 1732.87" stroke="url(#paint8_linear_1572_2071)" stroke-width="5" stroke-miterlimit="10"/>
<path d="M4.0625 1156.41C563.445 1194.39 1113.1 1312.87 1668.18 1388.71C1831.02 1411.02 2253.7 1542.62 2377.84 1360.14C2458.87 1240.97 2370.04 1181.62 2565.59 1158.5C2755.59 1136.09 2760.23 1200.55 2831.3 1321.11C2911.76 1457.48 2911.76 1495.34 3115.12 1478.85C3343.95 1459.8 3614.53 1341.91 3825.7 1266.64C4148 1151.88 4466.56 1026.55 4787.61 907.267C5062.04 805.17 5711.17 454.277 6012.53 666.834C6249.16 833.976 6207.97 1089.97 6534 1156.18" stroke="url(#paint9_linear_1572_2071)" stroke-width="5" stroke-miterlimit="10"/>
<path d="M4.0625 579.719C668.124 598.651 1379.94 806.214 2038.91 671.943C2401.04 598.071 2708.97 547.545 3073.48 653.475C3644.29 819.339 4193.15 607.711 4751.63 466.123C5068.49 385.63 5407.99 284.578 5736.18 357.986C6016.49 421.404 6239.54 560.786 6533.77 579.835" stroke="url(#paint10_linear_1572_2071)" stroke-width="5" stroke-miterlimit="10"/>
<path d="M5940.2 3.26953C5980.04 541.98 6355.75 910.296 6061.52 1450.86C5941.45 1671.55 5783.13 1860.41 5757.66 2121.41C5730.5 2400.17 5808.25 2709.6 5848.76 2983.71C5894.03 3287.45 5900.59 3600.71 5947.9 3901.31C5979.36 4101.32 6098.97 4222.12 6196.86 4389.84C6538.29 4975.59 5996.33 5733.83 5940.31 6344.67" stroke="url(#paint11_linear_1572_2071)" stroke-width="5" stroke-miterlimit="10"/>
<path d="M5346.81 3.26953C5416.86 310.025 5629.72 275.993 5811.7 468.456C6044.93 715.161 5831.27 946.303 5611.05 1090.8C5395.36 1232.27 4999.95 1359.69 4941.22 1651.69C4877.17 1967.04 5070.23 2443.73 5141.86 2748.39C5195.16 2975.47 5252.43 3201.96 5294.75 3431.48C5320.55 3571.91 5307.54 3763.44 5368.87 3889.58C5469.14 4095.52 5729.88 4061.13 5914.56 4126.3C6292.43 4259.64 6156.17 4557.8 6017.32 4861.42C5791.66 5355.18 5464.95 5807.35 5346.92 6345.14" stroke="url(#paint12_linear_1572_2071)" stroke-width="5" stroke-miterlimit="10"/>
<path d="M4753.42 3.26953C4796.99 449.756 5008.16 940.728 4750.59 1349C4639.46 1524.97 4490.31 1677.24 4465.52 1896.19C4433.72 2173.21 4566.69 2485.19 4646.59 2744.09C4740.29 3047.6 4776.84 3341.81 4848.25 3645.78C4906.42 3893.76 5083.41 4095.17 5214.12 4305.52C5405.48 4613.55 5417.82 4830.87 5269.68 5163.99C5092.24 5562.16 4833.2 5907.36 4753.31 6345.02" stroke="url(#paint13_linear_1572_2071)" stroke-width="5" stroke-miterlimit="10"/>
<path d="M4158.67 3.26953C4046.63 431.287 3758.17 743.619 3547.57 1120.76C3370.23 1439.02 3357.11 1653.32 3630.97 1894.68C3815.21 2057.29 4041.88 2173.44 4116.34 2427.81C4159.69 2575.79 4147.8 2644.32 4259.84 2754.2C4397.9 2889.63 4394.39 2979.53 4391.45 3182.33C4384.09 3674.23 4387.04 4166.02 4388.39 4657.46C4389.41 4993.25 4451.88 5444.85 4342.11 5774.37C4272.51 5983.44 4167.61 6111.21 4158.67 6344.79" stroke="url(#paint14_linear_1572_2071)" stroke-width="5" stroke-miterlimit="10"/>
<path d="M3565.37 3.26953C3465.89 434.54 3179.69 756.976 2978.37 1139.23C2794.02 1490.01 2814.96 1695.01 3101.83 1954.61C3311.53 2144.52 3607.58 2304.46 3683.28 2599.95C3705.92 2688.69 3711.35 2791.83 3732.17 2879.99C3860.28 3421.37 3701.16 4042.78 3637 4588.69C3567.74 5178.05 3593.2 5755.78 3566.16 6345.25" stroke="url(#paint15_linear_1572_2071)" stroke-width="5" stroke-miterlimit="10"/>
<path d="M2972.48 3.26953C2969.99 336.276 2881.27 644.89 2831.7 971.043C2776.7 1335.53 2848.56 1602.91 3025.67 1920.7C3255.74 2333.85 3795.2 2947.82 3264.34 3311.15C3066.86 3446.23 3073.77 3506.28 3004.73 3735.1C2944.42 3934.88 2777.27 4040.46 2647.47 4190.18C2423.4 4448.62 2479.19 4673.6 2573.46 4989.53C2709.26 5442.52 2902.2 5872.86 2972.03 6344.56" stroke="url(#paint16_linear_1572_2071)" stroke-width="5" stroke-miterlimit="10"/>
<path d="M2378.28 3.26953C2372.05 320.131 2423.54 626.422 2447.99 940.96C2475.26 1286.39 2506.61 1570.5 2618.3 1902.46C2726.72 2224.9 2926 2594.84 2938.34 2939.93C2945.47 3140.17 2821.55 3256.32 2681.45 3369.69C2489.07 3525.33 2493.71 3610.93 2406.23 3830.92C2325.66 4033.72 2087.21 4064.85 1919.61 4166.83C1608.18 4356.28 1700.07 4617.73 1823.31 4926.81C2012.98 5402.22 2306.08 5827.91 2378.84 6343.86" stroke="url(#paint17_linear_1572_2071)" stroke-width="5" stroke-miterlimit="10"/>
<path d="M1785.25 3.26953C1863.44 407.941 2109.58 716.671 2280.69 1081.04C2427.01 1392.56 2425.88 1599.42 2176.92 1833.7C2013.16 1987.83 1753.67 2125.36 1712.93 2372.76C1681.81 2561.39 1813.99 2753.62 1908.14 2902.06C2036.7 3104.51 2133.69 3278.74 2076.65 3525.56C1967.33 3998.88 1523.6 4440.25 1260.27 4826.22C1086.56 5081.18 659.691 5587.83 1043.55 5841.15C1303.27 6012.71 1667.78 6013.64 1784.57 6345.72" stroke="url(#paint18_linear_1572_2071)" stroke-width="5" stroke-miterlimit="10"/>
<path d="M1191.67 3.26953C1307.33 453.821 1651.02 764.061 1888.89 1147.48C1957.58 1258.05 2099.5 1465.62 2039.52 1614.29C1987.12 1744.38 1767.92 1783.75 1659.62 1805.47C1435.55 1850.31 895.742 1813.61 809.17 2095.85C740.025 2321.88 1089.94 2564.52 1224.49 2679.63C1460.44 2881.5 1679.87 3036.68 1605.86 3372.82C1553.13 3611.98 1392.77 3844.28 1276.43 4057.3C1074.21 4428.64 853.984 4788.71 645.531 5155.51C558.619 5308.6 -106.801 6237.7 377.552 6293.22C561.109 6314.24 1138.03 6040.35 1191.11 6345.48" stroke="url(#paint19_linear_1572_2071)" stroke-width="5" stroke-miterlimit="10"/>
<path d="M597.603 3.26953C652.941 557.079 1253.29 1271.06 810.922 1771.79C657.355 1946.02 454.108 2066.12 425.137 2319.79C400.127 2541.99 520.423 2761.87 612.541 2953.51C725.708 3188.14 822.578 3397.21 787.044 3664.59C732.385 4076.81 501.185 4478.47 349.089 4858.05C242.147 5125.2 30.6384 5543.34 229.133 5821.29C380.663 6033.39 557.316 6048.95 597.716 6345.25" stroke="url(#paint20_linear_1572_2071)" stroke-width="5" stroke-miterlimit="10"/>
<defs>
<linearGradient id="paint0_linear_1572_2071" x1="3268.4" y1="3" x2="3268.4" y2="6346" gradientUnits="userSpaceOnUse">
<stop stop-color="#9EC6DD"/>
<stop offset="0.18" stop-color="#7E94C0" stop-opacity="0.902373"/>
<stop offset="0.295" stop-color="#5769B1" stop-opacity="0.84"/>
<stop offset="0.455" stop-color="#C6F5F8" stop-opacity="0.858156"/>
<stop offset="0.65" stop-color="#8BB2D8" stop-opacity="0.880284"/>
<stop offset="0.8" stop-color="#339ACB" stop-opacity="0.897305"/>
<stop offset="1" stop-color="#BEFBFF" stop-opacity="0.92"/>
</linearGradient>
<linearGradient id="paint1_linear_1572_2071" x1="3268.92" y1="5415.97" x2="3268.92" y2="6243.71" gradientUnits="userSpaceOnUse">
<stop stop-color="#9EC6DD"/>
<stop offset="0.18" stop-color="#7E94C0" stop-opacity="0.902373"/>
<stop offset="0.295" stop-color="#5769B1" stop-opacity="0.84"/>
<stop offset="0.455" stop-color="#C6F5F8" stop-opacity="0.858156"/>
<stop offset="0.65" stop-color="#8BB2D8" stop-opacity="0.880284"/>
<stop offset="0.8" stop-color="#339ACB" stop-opacity="0.897305"/>
<stop offset="1" stop-color="#BEFBFF" stop-opacity="0.92"/>
</linearGradient>
<linearGradient id="paint2_linear_1572_2071" x1="3269.26" y1="4412.62" x2="3269.26" y2="6249.46" gradientUnits="userSpaceOnUse">
<stop stop-color="#9EC6DD"/>
<stop offset="0.18" stop-color="#7E94C0" stop-opacity="0.902373"/>
<stop offset="0.295" stop-color="#5769B1" stop-opacity="0.84"/>
<stop offset="0.455" stop-color="#C6F5F8" stop-opacity="0.858156"/>
<stop offset="0.65" stop-color="#8BB2D8" stop-opacity="0.880284"/>
<stop offset="0.8" stop-color="#339ACB" stop-opacity="0.897305"/>
<stop offset="1" stop-color="#BEFBFF" stop-opacity="0.92"/>
</linearGradient>
<linearGradient id="paint3_linear_1572_2071" x1="3269.65" y1="4059.73" x2="3269.65" y2="5184.27" gradientUnits="userSpaceOnUse">
<stop stop-color="#9EC6DD"/>
<stop offset="0.18" stop-color="#7E94C0" stop-opacity="0.902373"/>
<stop offset="0.295" stop-color="#5769B1" stop-opacity="0.84"/>
<stop offset="0.455" stop-color="#C6F5F8" stop-opacity="0.858156"/>
<stop offset="0.65" stop-color="#8BB2D8" stop-opacity="0.880284"/>
<stop offset="0.8" stop-color="#339ACB" stop-opacity="0.897305"/>
<stop offset="1" stop-color="#BEFBFF" stop-opacity="0.92"/>
</linearGradient>
<linearGradient id="paint4_linear_1572_2071" x1="3269.08" y1="3327.61" x2="3269.08" y2="4039.25" gradientUnits="userSpaceOnUse">
<stop stop-color="#9EC6DD"/>
<stop offset="0.18" stop-color="#7E94C0" stop-opacity="0.902373"/>
<stop offset="0.295" stop-color="#5769B1" stop-opacity="0.84"/>
<stop offset="0.455" stop-color="#C6F5F8" stop-opacity="0.858156"/>
<stop offset="0.65" stop-color="#8BB2D8" stop-opacity="0.880284"/>
<stop offset="0.8" stop-color="#339ACB" stop-opacity="0.897305"/>
<stop offset="1" stop-color="#BEFBFF" stop-opacity="0.92"/>
</linearGradient>
<linearGradient id="paint5_linear_1572_2071" x1="3268.97" y1="2783.79" x2="3268.97" y2="3558.6" gradientUnits="userSpaceOnUse">
<stop stop-color="#9EC6DD"/>
<stop offset="0.18" stop-color="#7E94C0" stop-opacity="0.902373"/>
<stop offset="0.295" stop-color="#5769B1" stop-opacity="0.84"/>
<stop offset="0.455" stop-color="#C6F5F8" stop-opacity="0.858156"/>
<stop offset="0.65" stop-color="#8BB2D8" stop-opacity="0.880284"/>
<stop offset="0.8" stop-color="#339ACB" stop-opacity="0.897305"/>
<stop offset="1" stop-color="#BEFBFF" stop-opacity="0.92"/>
</linearGradient>
<linearGradient id="paint6_linear_1572_2071" x1="3268.81" y1="2193.77" x2="3268.81" y2="3309.71" gradientUnits="userSpaceOnUse">
<stop stop-color="#9EC6DD"/>
<stop offset="0.18" stop-color="#7E94C0" stop-opacity="0.902373"/>
<stop offset="0.295" stop-color="#5769B1" stop-opacity="0.84"/>
<stop offset="0.455" stop-color="#C6F5F8" stop-opacity="0.858156"/>
<stop offset="0.65" stop-color="#8BB2D8" stop-opacity="0.880284"/>
<stop offset="0.8" stop-color="#339ACB" stop-opacity="0.897305"/>
<stop offset="1" stop-color="#BEFBFF" stop-opacity="0.92"/>
</linearGradient>
<linearGradient id="paint7_linear_1572_2071" x1="3268.97" y1="1482.66" x2="3268.97" y2="2782.59" gradientUnits="userSpaceOnUse">
<stop stop-color="#9EC6DD"/>
<stop offset="0.18" stop-color="#7E94C0" stop-opacity="0.902373"/>
<stop offset="0.295" stop-color="#5769B1" stop-opacity="0.84"/>
<stop offset="0.455" stop-color="#C6F5F8" stop-opacity="0.858156"/>
<stop offset="0.65" stop-color="#8BB2D8" stop-opacity="0.880284"/>
<stop offset="0.8" stop-color="#339ACB" stop-opacity="0.897305"/>
<stop offset="1" stop-color="#BEFBFF" stop-opacity="0.92"/>
</linearGradient>
<linearGradient id="paint8_linear_1572_2071" x1="3268.92" y1="1078.35" x2="3268.92" y2="1950.3" gradientUnits="userSpaceOnUse">
<stop stop-color="#9EC6DD"/>
<stop offset="0.18" stop-color="#7E94C0" stop-opacity="0.902373"/>
<stop offset="0.295" stop-color="#5769B1" stop-opacity="0.84"/>
<stop offset="0.455" stop-color="#C6F5F8" stop-opacity="0.858156"/>
<stop offset="0.65" stop-color="#8BB2D8" stop-opacity="0.880284"/>
<stop offset="0.8" stop-color="#339ACB" stop-opacity="0.897305"/>
<stop offset="1" stop-color="#BEFBFF" stop-opacity="0.92"/>
</linearGradient>
<linearGradient id="paint9_linear_1572_2071" x1="3269.03" y1="599.68" x2="3269.03" y2="1482.46" gradientUnits="userSpaceOnUse">
<stop stop-color="#9EC6DD"/>
<stop offset="0.18" stop-color="#7E94C0" stop-opacity="0.902373"/>
<stop offset="0.295" stop-color="#5769B1" stop-opacity="0.84"/>
<stop offset="0.455" stop-color="#C6F5F8" stop-opacity="0.858156"/>
<stop offset="0.65" stop-color="#8BB2D8" stop-opacity="0.880284"/>
<stop offset="0.8" stop-color="#339ACB" stop-opacity="0.897305"/>
<stop offset="1" stop-color="#BEFBFF" stop-opacity="0.92"/>
</linearGradient>
<linearGradient id="paint10_linear_1572_2071" x1="3268.92" y1="332.578" x2="3268.92" y2="716.884" gradientUnits="userSpaceOnUse">
<stop stop-color="#9EC6DD"/>
<stop offset="0.18" stop-color="#7E94C0" stop-opacity="0.902373"/>
<stop offset="0.295" stop-color="#5769B1" stop-opacity="0.84"/>
<stop offset="0.455" stop-color="#C6F5F8" stop-opacity="0.858156"/>
<stop offset="0.65" stop-color="#8BB2D8" stop-opacity="0.880284"/>
<stop offset="0.8" stop-color="#339ACB" stop-opacity="0.897305"/>
<stop offset="1" stop-color="#BEFBFF" stop-opacity="0.92"/>
</linearGradient>
<linearGradient id="paint11_linear_1572_2071" x1="6030.51" y1="3.26953" x2="6030.51" y2="6344.67" gradientUnits="userSpaceOnUse">
<stop stop-color="#9EC6DD"/>
<stop offset="0.18" stop-color="#7E94C0" stop-opacity="0.902373"/>
<stop offset="0.295" stop-color="#5769B1" stop-opacity="0.84"/>
<stop offset="0.455" stop-color="#C6F5F8" stop-opacity="0.858156"/>
<stop offset="0.65" stop-color="#8BB2D8" stop-opacity="0.880284"/>
<stop offset="0.8" stop-color="#339ACB" stop-opacity="0.897305"/>
<stop offset="1" stop-color="#BEFBFF" stop-opacity="0.92"/>
</linearGradient>
<linearGradient id="paint12_linear_1572_2071" x1="5544.15" y1="3.26953" x2="5544.15" y2="6345.14" gradientUnits="userSpaceOnUse">
<stop stop-color="#9EC6DD"/>
<stop offset="0.18" stop-color="#7E94C0" stop-opacity="0.902373"/>
<stop offset="0.295" stop-color="#5769B1" stop-opacity="0.84"/>
<stop offset="0.455" stop-color="#C6F5F8" stop-opacity="0.858156"/>
<stop offset="0.65" stop-color="#8BB2D8" stop-opacity="0.880284"/>
<stop offset="0.8" stop-color="#339ACB" stop-opacity="0.897305"/>
<stop offset="1" stop-color="#BEFBFF" stop-opacity="0.92"/>
</linearGradient>
<linearGradient id="paint13_linear_1572_2071" x1="4915.6" y1="3.26953" x2="4915.6" y2="6345.02" gradientUnits="userSpaceOnUse">
<stop stop-color="#9EC6DD"/>
<stop offset="0.18" stop-color="#7E94C0" stop-opacity="0.902373"/>
<stop offset="0.295" stop-color="#5769B1" stop-opacity="0.84"/>
<stop offset="0.455" stop-color="#C6F5F8" stop-opacity="0.858156"/>
<stop offset="0.65" stop-color="#8BB2D8" stop-opacity="0.880284"/>
<stop offset="0.8" stop-color="#339ACB" stop-opacity="0.897305"/>
<stop offset="1" stop-color="#BEFBFF" stop-opacity="0.92"/>
</linearGradient>
<linearGradient id="paint14_linear_1572_2071" x1="3913.02" y1="3.26953" x2="3913.02" y2="6344.79" gradientUnits="userSpaceOnUse">
<stop stop-color="#9EC6DD"/>
<stop offset="0.18" stop-color="#7E94C0" stop-opacity="0.902373"/>
<stop offset="0.295" stop-color="#5769B1" stop-opacity="0.84"/>
<stop offset="0.455" stop-color="#C6F5F8" stop-opacity="0.858156"/>
<stop offset="0.65" stop-color="#8BB2D8" stop-opacity="0.880284"/>
<stop offset="0.8" stop-color="#339ACB" stop-opacity="0.897305"/>
<stop offset="1" stop-color="#BEFBFF" stop-opacity="0.92"/>
</linearGradient>
<linearGradient id="paint15_linear_1572_2071" x1="3319.93" y1="3.26953" x2="3319.93" y2="6345.25" gradientUnits="userSpaceOnUse">
<stop stop-color="#9EC6DD"/>
<stop offset="0.18" stop-color="#7E94C0" stop-opacity="0.902373"/>
<stop offset="0.295" stop-color="#5769B1" stop-opacity="0.84"/>
<stop offset="0.455" stop-color="#C6F5F8" stop-opacity="0.858156"/>
<stop offset="0.65" stop-color="#8BB2D8" stop-opacity="0.880284"/>
<stop offset="0.8" stop-color="#339ACB" stop-opacity="0.897305"/>
<stop offset="1" stop-color="#BEFBFF" stop-opacity="0.92"/>
</linearGradient>
<linearGradient id="paint16_linear_1572_2071" x1="2990.78" y1="3.26953" x2="2990.78" y2="6344.56" gradientUnits="userSpaceOnUse">
<stop stop-color="#9EC6DD"/>
<stop offset="0.18" stop-color="#7E94C0" stop-opacity="0.902373"/>
<stop offset="0.295" stop-color="#5769B1" stop-opacity="0.84"/>
<stop offset="0.455" stop-color="#C6F5F8" stop-opacity="0.858156"/>
<stop offset="0.65" stop-color="#8BB2D8" stop-opacity="0.880284"/>
<stop offset="0.8" stop-color="#339ACB" stop-opacity="0.897305"/>
<stop offset="1" stop-color="#BEFBFF" stop-opacity="0.92"/>
</linearGradient>
<linearGradient id="paint17_linear_1572_2071" x1="2323.54" y1="3.26953" x2="2323.54" y2="6343.86" gradientUnits="userSpaceOnUse">
<stop stop-color="#9EC6DD"/>
<stop offset="0.18" stop-color="#7E94C0" stop-opacity="0.902373"/>
<stop offset="0.295" stop-color="#5769B1" stop-opacity="0.84"/>
<stop offset="0.455" stop-color="#C6F5F8" stop-opacity="0.858156"/>
<stop offset="0.65" stop-color="#8BB2D8" stop-opacity="0.880284"/>
<stop offset="0.8" stop-color="#339ACB" stop-opacity="0.897305"/>
<stop offset="1" stop-color="#BEFBFF" stop-opacity="0.92"/>
</linearGradient>
<linearGradient id="paint18_linear_1572_2071" x1="1633.93" y1="3.26953" x2="1633.93" y2="6345.72" gradientUnits="userSpaceOnUse">
<stop stop-color="#9EC6DD"/>
<stop offset="0.18" stop-color="#7E94C0" stop-opacity="0.902373"/>
<stop offset="0.295" stop-color="#5769B1" stop-opacity="0.84"/>
<stop offset="0.455" stop-color="#C6F5F8" stop-opacity="0.858156"/>
<stop offset="0.65" stop-color="#8BB2D8" stop-opacity="0.880284"/>
<stop offset="0.8" stop-color="#339ACB" stop-opacity="0.897305"/>
<stop offset="1" stop-color="#BEFBFF" stop-opacity="0.92"/>
</linearGradient>
<linearGradient id="paint19_linear_1572_2071" x1="1128.25" y1="3.26953" x2="1128.25" y2="6345.48" gradientUnits="userSpaceOnUse">
<stop stop-color="#9EC6DD"/>
<stop offset="0.18" stop-color="#7E94C0" stop-opacity="0.902373"/>
<stop offset="0.295" stop-color="#5769B1" stop-opacity="0.84"/>
<stop offset="0.455" stop-color="#C6F5F8" stop-opacity="0.858156"/>
<stop offset="0.65" stop-color="#8BB2D8" stop-opacity="0.880284"/>
<stop offset="0.8" stop-color="#339ACB" stop-opacity="0.897305"/>
<stop offset="1" stop-color="#BEFBFF" stop-opacity="0.92"/>
</linearGradient>
<linearGradient id="paint20_linear_1572_2071" x1="559.885" y1="3.26953" x2="559.885" y2="6345.25" gradientUnits="userSpaceOnUse">
<stop stop-color="#9EC6DD"/>
<stop offset="0.18" stop-color="#7E94C0" stop-opacity="0.902373"/>
<stop offset="0.295" stop-color="#5769B1" stop-opacity="0.84"/>
<stop offset="0.455" stop-color="#C6F5F8" stop-opacity="0.858156"/>
<stop offset="0.65" stop-color="#8BB2D8" stop-opacity="0.880284"/>
<stop offset="0.8" stop-color="#339ACB" stop-opacity="0.897305"/>
<stop offset="1" stop-color="#BEFBFF" stop-opacity="0.92"/>
</linearGradient>
</defs>
</svg>
